<?xml version="1.0" encoding="utf-8"?>
<!-- Generator: Adobe Illustrator 26.3.0, SVG Export Plug-In . SVG Version: 6.00 Build 0)  -->
<svg version="1.1" id="Layer_1" xmlns="http://www.w3.org/2000/svg" xmlns:xlink="http://www.w3.org/1999/xlink" x="0px" y="0px" width="130" viewBox="0 0 1080 1080" style="enable-background:new 0 0 1080 1080;" xml:space="preserve">
<style type="text/css">
	.st0{fill:url(#SVGID_1_);}
	.st1{fill:url(#SVGID_00000018955806731041829720000011376427453252744123_);}
	.st2{fill:url(#SVGID_00000059999856090158169850000013248804040212635049_);}
	.st3{fill:url(#SVGID_00000093883653354687562300000009752337361656690094_);}
	.st4{fill:url(#SVGID_00000133509246173348588280000015299225272583564697_);}
	.st5{fill:url(#SVGID_00000007389679516309547510000013874309095797295795_);}
	.st6{fill:url(#SVGID_00000152985638853890805120000001548863891719385751_);}
	.st7{fill:url(#SVGID_00000066476996169931201220000000030195282186676645_);}
	.st8{fill:url(#SVGID_00000052070775738186620230000009248878841913544615_);}
	.st9{fill:url(#SVGID_00000142135685189716692390000005398451674907924615_);}
	.st10{fill:none;stroke:#000000;stroke-miterlimit:10;}
	.st11{fill:#FFFFFF;}
</style>
<linearGradient id="SVGID_1_" gradientUnits="userSpaceOnUse" x1="228.2673" y1="379.4279" x2="779.5491" y2="811.1982" gradientTransform="matrix(1 0 0 -1 0 1080)">
	<stop  offset="0" style="stop-color:#C84127"/>
	<stop  offset="1" style="stop-color:#F89621"/>
</linearGradient>
<path class="st0" d="M890.6,540c0,1.2,0,2.5,0,3.7c-7.4-4.4-19.5-10.9-35.3-17.6c-9.1-3.9-19.3-7.7-30.6-11.2
	C771.3,498.2,695.3,489.6,617,531c-12.1,6.4-24.3,14-36.5,22.9c-19.3,14.2-37.2,28.5-54.1,42.6c-7.1,5.9-14,11.8-20.8,17.6
	c-3.4,2.9-6.7,5.8-10,8.6s-6.6,5.7-9.8,8.5c-2.4,2.1-4.7,4.1-7.1,6.1c-2.5,2.1-4.9,4.2-7.3,6.3c-4.7,4.1-9.4,8.1-14,12
	c-3.1,2.6-6.1,5.2-9.1,7.8c-2.6,2.2-5.2,4.4-7.8,6.5c-1.2,1-2.3,1.9-3.5,2.8c-11.9,9.8-23.6,18.8-35.2,26.9c-1.5,1-2.9,2-4.4,3
	c-6.5,4.4-13.1,8.5-19.6,12.2c-25.9,14.8-52.4,24.1-81.6,25.4c-14.9,0.6-30.5-0.8-47.1-4.7c-37.7-55.9-59.6-123.2-59.6-195.7
	c0-193.6,157-350.6,350.6-350.6S890.6,346.4,890.6,540z"/>
<linearGradient id="SVGID_00000002376938587635184360000013449537363125328556_" gradientUnits="userSpaceOnUse" x1="112.8683" y1="278.5966" x2="808.7277" y2="839.1749" gradientTransform="matrix(1 0 0 -1 0 1080)">
	<stop  offset="0" style="stop-color:#C5792A"/>
	<stop  offset="1.698846e-02" style="stop-color:#C88031"/>
	<stop  offset="6.822109e-02" style="stop-color:#D1944B"/>
	<stop  offset="0.1259" style="stop-color:#D9A865"/>
	<stop  offset="0.1896" style="stop-color:#E0B97B"/>
	<stop  offset="0.2616" style="stop-color:#E7C88E"/>
	<stop  offset="0.3456" style="stop-color:#ECD49E"/>
	<stop  offset="0.4495" style="stop-color:#F0DCA9"/>
	<stop  offset="0.5953" style="stop-color:#F2E1B0"/>
	<stop  offset="1" style="stop-color:#F3E3B2"/>
	<stop  offset="1" style="stop-color:#F8EFC3"/>
	<stop  offset="1" style="stop-color:#FCF9CE"/>
</linearGradient>
<path style="fill:url(#SVGID_00000002376938587635184360000013449537363125328556_);" d="M855.3,526.1c-9.1-3.9-19.3-7.7-30.6-11.2
	C771.3,498.2,695.3,489.6,617,531c-12.1,6.4-24.3,14-36.5,22.9c-19.3,14.2-37.2,28.5-54.1,42.6c-7.1,5.9-14,11.8-20.8,17.6
	c-3.4,2.9-6.7,5.8-10,8.6s-6.6,5.7-9.8,8.5c-2.4,2.1-4.7,4.1-7.1,6.1c-2.5,2.1-4.9,4.2-7.3,6.3c-4.7,4.1-9.4,8.1-14,12
	c-3.1,2.6-6.1,5.2-9.1,7.8c-2.6,2.2-5.2,4.4-7.8,6.5c-1.2,1-2.3,1.9-3.5,2.8c-11.9,9.8-23.6,18.8-35.2,26.9c-1.5,1-2.9,2-4.4,3
	c-6.5,4.4-13.1,8.5-19.6,12.2c-25.9,14.8-52.4,24.1-81.6,25.4c-44.8-54.5-71.8-124.3-71.8-200.4c0-174.3,141.3-315.6,315.6-315.6
	C709.7,224.4,848,358.2,855.3,526.1z"/>
<linearGradient id="SVGID_00000039834077944600360920000001010562740600064190_" gradientUnits="userSpaceOnUse" x1="258.3801" y1="643.5859" x2="491.3161" y2="643.5859" gradientTransform="matrix(1 0 0 -1 0 1080)">
	<stop  offset="0" style="stop-color:#FBB043"/>
	<stop  offset="1" style="stop-color:#F37524"/>
</linearGradient>
<path style="fill:url(#SVGID_00000039834077944600360920000001010562740600064190_);" d="M485.6,490.1L352.7,357.2
	c-10.8-10.8-28.8-9.8-38.2,2.4c-29.4,38.4-49.2,84.5-55.9,134.7c-2,15.3,9.9,28.8,25.3,28.8h187.9
	C489.2,523.2,497.8,502.3,485.6,490.1z"/>
<linearGradient id="SVGID_00000088100722330393622900000007999405528855871645_" gradientUnits="userSpaceOnUse" x1="357.7878" y1="713.0952" x2="531.2" y2="713.0952" gradientTransform="matrix(1 0 0 -1 0 1080)">
	<stop  offset="0" style="stop-color:#FBB043"/>
	<stop  offset="1" style="stop-color:#F37524"/>
</linearGradient>
<path style="fill:url(#SVGID_00000088100722330393622900000007999405528855871645_);" d="M531.2,463.9V276
	c0-15.4-13.6-27.3-28.8-25.3c-50.2,6.7-96.3,26.5-134.7,55.9c-12.2,9.3-13.3,27.3-2.4,38.2l132.9,132.9
	C510.3,489.8,531.2,481.1,531.2,463.9z"/>
<linearGradient id="SVGID_00000065074533638798884350000014388200166945501880_" gradientUnits="userSpaceOnUse" x1="548.8" y1="713.1401" x2="722.272" y2="713.1401" gradientTransform="matrix(1 0 0 -1 0 1080)">
	<stop  offset="0" style="stop-color:#FBB043"/>
	<stop  offset="1" style="stop-color:#F37524"/>
</linearGradient>
<path style="fill:url(#SVGID_00000065074533638798884350000014388200166945501880_);" d="M548.8,276v187.9
	c0,17.3,20.9,25.9,33.1,13.7l132.9-132.9c10.8-10.8,9.8-28.8-2.4-38.2c-38.4-29.4-84.5-49.2-134.7-55.9
	C562.4,248.7,548.8,260.6,548.8,276z"/>
<linearGradient id="SVGID_00000068674874778356052680000014333254925151368856_" gradientUnits="userSpaceOnUse" x1="258.4801" y1="452.4939" x2="491.3505" y2="452.4939" gradientTransform="matrix(1 0 0 -1 0 1080)">
	<stop  offset="0" style="stop-color:#FBB043"/>
	<stop  offset="1" style="stop-color:#F37524"/>
</linearGradient>
<path style="fill:url(#SVGID_00000068674874778356052680000014333254925151368856_);" d="M471.9,540.8H284
	c-15.4,0-27.3,13.6-25.3,28.8c6.7,50.2,26.5,96.3,55.9,134.7c9.3,12.2,27.3,13.3,38.2,2.4l132.9-132.9
	C497.8,561.7,489.2,540.8,471.9,540.8z"/>
<linearGradient id="SVGID_00000152948161337839387960000014867946835717409181_" gradientUnits="userSpaceOnUse" x1="588.6805" y1="646.536" x2="821.4542" y2="646.536" gradientTransform="matrix(1 0 0 -1 0 1080)">
	<stop  offset="0" style="stop-color:#FBB043"/>
	<stop  offset="1" style="stop-color:#F37524"/>
</linearGradient>
<path style="fill:url(#SVGID_00000152948161337839387960000014867946835717409181_);" d="M809.6,501.4
	c-50.1-13.8-117.7-19-187.6,15.5c-4.3,2.1-9.1,3.3-13.9,3.3l0,0c-17.3,0-25.9-20.9-13.7-33.1l132.9-132.9
	c10.9-10.8,28.8-9.8,38.2,2.4c29.4,38.4,49.2,84.5,55.9,134.7v0.1C822.1,498.1,815.9,503.2,809.6,501.4z"/>
<linearGradient id="SVGID_00000027565511591203713500000006159821355035694219_" gradientUnits="userSpaceOnUse" x1="406.4832" y1="222.929" x2="779.7446" y2="283.9106" gradientTransform="matrix(1 0 0 -1 0 1080)">
	<stop  offset="0" style="stop-color:#4B2E87"/>
	<stop  offset="0.7263" style="stop-color:#EA198D"/>
</linearGradient>
<path style="fill:url(#SVGID_00000027565511591203713500000006159821355035694219_);" d="M779.2,796.4
	c-62.7,58.5-146.7,94.2-239.2,94.2c-49.4,0-96.4-10.2-139.1-28.7c111.5-59.9,154.7-96.3,235.7-101
	C717.7,756.1,764.1,778.7,779.2,796.4z"/>
<linearGradient id="SVGID_00000084490393301556451060000008018705723843980161_" gradientUnits="userSpaceOnUse" x1="488.1248" y1="333.272" x2="899.4725" y2="308.8687" gradientTransform="matrix(1 0 0 -1 0 1080)">
	<stop  offset="0.3917" style="stop-color:#EA198D"/>
	<stop  offset="0.4597" style="stop-color:#DC1B8C"/>
	<stop  offset="0.5944" style="stop-color:#BD228A"/>
	<stop  offset="0.7832" style="stop-color:#8C2A89"/>
	<stop  offset="1" style="stop-color:#4B2E87"/>
</linearGradient>
<path style="fill:url(#SVGID_00000084490393301556451060000008018705723843980161_);" d="M829.9,737.3c0,0,0,0.1-0.1,0.2
	c-2.1,2.6-28.8,32.5-116.7,3c-85-28.5-172.8,23-226.8,57.4c15.9-10.2,32-20.6,48.2-31.1C673.5,677.2,782.7,712.8,829.9,737.3z"/>
<linearGradient id="SVGID_00000113322063294059681800000017076979732377844661_" gradientUnits="userSpaceOnUse" x1="288.3166" y1="285.785" x2="881.9776" y2="484.5443" gradientTransform="matrix(1 0 0 -1 0 1080)">
	<stop  offset="0" style="stop-color:#4B2E87"/>
	<stop  offset="0.821" style="stop-color:#EA198D"/>
</linearGradient>
<path style="fill:url(#SVGID_00000113322063294059681800000017076979732377844661_);" d="M888.5,578.2
	c-6.3,58.6-27.1,112.8-58.7,159.1c-47.2-24.5-156.4-60.1-295.5,29.5c-16.2,10.5-32.3,20.8-48.2,31.1c-0.7,0.4-1.4,0.9-2,1.3
	c-0.7,0.4-1.4,0.9-2,1.3c-2.9,1.9-5.8,3.7-8.5,5.4c-0.3,0.2-0.5,0.3-0.8,0.5c-27.8,17.8-54.8,35.2-80.6,51.7
	c-51.2-23.8-95.6-59.6-129.8-103.8c11.1,2.1,21.8,3.1,32.2,3c29.3-0.2,56-8.5,82.5-22.3c47.6-24.9,94.3-67.6,152.9-112.8
	c17.4-13.4,35.8-27.1,55.7-40.6c10.7-7.3,21.4-13.6,32.1-19c1.7-0.9,3.5-1.7,5.2-2.6c79.8-38.4,155.5-27.1,208.2-8.5
	c2.3,0.8,4.6,1.6,6.8,2.5c8.5,3.2,16.4,6.6,23.4,9.9C872.4,569,881.5,574.1,888.5,578.2z"/>
<path class="st10" d="M249,735.7"/>
<path class="st11" d="M512.8,428.2l-1.3,19.5c-0.3,4.3-5.4,6.4-8.6,3.5l-14.5-13.1c-8-7.2-5.7-20.4,4.3-24.5h0
	C502.7,409.5,513.6,417.4,512.8,428.2z"/>
<path class="st11" d="M588.9,439.6l-14.5,13.1c-3.2,2.9-8.3,0.8-8.6-3.5l-1.3-19.5c-0.7-10.8,10.1-18.6,20.1-14.6v0
	C594.7,419.2,597,432.3,588.9,439.6z"/>
<path class="st11" d="M450.2,482.1l12.8,14.7c2.8,3.3,0.7,8.3-3.6,8.6l-19.5,1c-10.8,0.5-18.4-10.4-14.2-20.4v0
	C429.9,476,443.1,473.9,450.2,482.1z"/>
<path class="st11" d="M444.4,559.3l19.5,0c4.3,0,6.7,5,4.1,8.4l-12,15.4c-6.7,8.5-20,7.1-24.7-2.6l0,0
	C426.5,570.6,433.6,559.3,444.4,559.3z"/>
<path class="st11" d="M638.4,502.6l-19.5-1c-4.3-0.2-6.5-5.3-3.6-8.6l12.8-14.7c7.1-8.2,20.3-6.1,24.5,3.9v0
	C656.9,492.2,649.2,503.1,638.4,502.6z"/>
</svg>
