<svg width="96" height="96" viewBox="0 0 96 96" fill="none" xmlns="http://www.w3.org/2000/svg">
<mask id="mask0_4_90" style="mask-type:luminance" maskUnits="userSpaceOnUse" x="12" y="1" width="22" height="94">
<path d="M12.416 1.0496H33.2032V94.7712H12.416V1.0496Z" fill="white"/>
</mask>
<g mask="url(#mask0_4_90)">
<mask id="mask1_4_90" style="mask-type:luminance" maskUnits="userSpaceOnUse" x="12" y="1" width="22" height="94">
<path d="M33.1894 1.0738V81.3685C33.1894 88.758 27.7519 94.7478 21.0441 94.7478H12.4358V1.0738H33.1894Z" fill="white"/>
</mask>
<g mask="url(#mask1_4_90)">
<path d="M12.4358 1.0738V94.7478H33.1894V1.0738H12.4358Z" fill="url(#paint0_linear_4_90)"/>
</g>
</g>
<mask id="mask2_4_90" style="mask-type:luminance" maskUnits="userSpaceOnUse" x="33" y="27" width="51" height="68">
<path d="M33.2544 27.7504H83.6352V94.7712H33.2544V27.7504Z" fill="white"/>
</mask>
<g mask="url(#mask2_4_90)">
<mask id="mask3_4_90" style="mask-type:luminance" maskUnits="userSpaceOnUse" x="33" y="27" width="51" height="68">
<path d="M83.6099 52.9718V94.7472H75.0139C72.5324 94.7472 70.2251 94.0043 68.3018 92.7277H68.3013C65.0923 90.599 62.9522 86.9866 62.8601 82.8688C62.8574 82.7761 62.8563 82.6834 62.8563 82.5902V52.5032C62.8563 52.3929 62.8553 52.2827 62.8526 52.173C62.8515 52.1293 62.8505 52.0862 62.8494 52.0435C62.8489 52.0206 62.8478 51.9983 62.8473 51.9754C62.8451 51.9242 62.843 51.8737 62.8409 51.8231C62.8388 51.7719 62.8361 51.7219 62.8334 51.6713C62.8329 51.6665 62.8329 51.6612 62.8324 51.6564V51.6542C62.8297 51.6111 62.827 51.568 62.8244 51.5254C62.8222 51.4849 62.819 51.4439 62.8159 51.4034C62.8143 51.3746 62.8121 51.3459 62.8095 51.3177C62.802 51.2213 62.7935 51.1259 62.7839 51.0306C62.7796 50.9859 62.7754 50.9417 62.77 50.8969C62.7663 50.8575 62.7615 50.8186 62.7573 50.7798C62.7567 50.7739 62.7557 50.7686 62.7551 50.7627C62.7525 50.7382 62.7498 50.7142 62.7461 50.6898C62.7408 50.6418 62.7344 50.5939 62.728 50.5465C62.7242 50.5129 62.7195 50.4789 62.7147 50.4453C62.7136 50.4384 62.7131 50.432 62.712 50.4256C62.7104 50.4155 62.7093 50.4054 62.7077 50.3952C62.704 50.3707 62.7008 50.3468 62.6971 50.3223C62.6907 50.2797 62.6843 50.2371 62.6774 50.1945C62.6747 50.1763 62.672 50.1577 62.6689 50.1396C62.6614 50.0911 62.6534 50.0427 62.6449 49.9947C62.6396 49.9612 62.6337 49.9282 62.6278 49.8952C62.6268 49.8888 62.6257 49.8824 62.6241 49.876C62.6177 49.8382 62.6108 49.7998 62.6033 49.762C62.598 49.7311 62.5921 49.7002 62.5858 49.6699C62.5762 49.6182 62.5661 49.5671 62.5554 49.516C62.5543 49.5106 62.5533 49.5058 62.5522 49.501C62.5416 49.4499 62.5309 49.3983 62.5197 49.3471C62.508 49.2939 62.4963 49.2401 62.484 49.1868C62.4718 49.1336 62.4595 49.0808 62.4467 49.0276C62.4377 48.9898 62.4286 48.9514 62.419 48.9136C62.418 48.9099 62.4169 48.9056 62.4159 48.9019C62.4084 48.8715 62.4009 48.8417 62.393 48.8114C62.3844 48.7778 62.3759 48.7437 62.3669 48.7102C62.353 48.6575 62.3386 48.6047 62.3242 48.5525C62.3099 48.5003 62.2955 48.4481 62.28 48.396C62.2651 48.3438 62.2502 48.2916 62.2342 48.2399C62.2188 48.1877 62.2033 48.1361 62.1868 48.0844C62.1799 48.0615 62.173 48.0386 62.165 48.0162C62.1549 47.9827 62.1442 47.9491 62.133 47.9156C62.1181 47.8687 62.1027 47.8218 62.0867 47.7755C62.0744 47.7377 62.0617 47.7004 62.0483 47.6626C62.0478 47.6605 62.0468 47.6589 62.0462 47.6567C62.027 47.5998 62.0068 47.5433 61.9866 47.4869C61.9663 47.4304 61.9456 47.374 61.9248 47.318C61.8891 47.2222 61.8523 47.1268 61.8145 47.0315C61.733 46.827 61.6478 46.6246 61.5573 46.4249C61.5354 46.3759 61.5136 46.3275 61.4907 46.2785C61.446 46.1815 61.4002 46.0851 61.3533 45.9898C61.3298 45.9419 61.3059 45.8939 61.2819 45.846C61.2579 45.7981 61.234 45.7507 61.2089 45.7033C61.185 45.6559 61.1599 45.6085 61.1349 45.5616C61.1099 45.5147 61.0848 45.4673 61.0593 45.421C61.0337 45.3741 61.0081 45.3273 60.982 45.2809C60.9581 45.2373 60.933 45.1936 60.908 45.1499C60.801 44.9625 60.6902 44.7777 60.5751 44.5961C60.5469 44.5508 60.5181 44.5066 60.4894 44.4619C60.4606 44.4171 60.4313 44.3729 60.402 44.3287C60.3802 44.2952 60.3578 44.2616 60.3349 44.2281C60.3099 44.1908 60.2848 44.1535 60.2593 44.1167C60.2476 44.0997 60.2358 44.0821 60.2236 44.0651C60.1938 44.0214 60.1634 43.9783 60.1325 43.9351C60.1022 43.892 60.0713 43.8489 60.0398 43.8057C60.002 43.7535 59.9642 43.7019 59.9253 43.6502C59.9083 43.6273 59.8912 43.6044 59.8742 43.5815C59.8348 43.5288 59.7948 43.4766 59.7544 43.4249C59.6244 43.2577 59.4912 43.0931 59.3549 42.9318C59.2452 42.8013 59.1323 42.6735 59.0177 42.5473C58.9767 42.502 58.9352 42.4567 58.8936 42.412C58.769 42.2772 58.6417 42.1452 58.5117 42.0152C55.8273 39.3311 52.1187 37.671 48.0229 37.671C43.927 37.671 40.2189 39.3311 37.5345 42.0152C37.3667 42.183 37.2032 42.355 37.0434 42.5302C36.9635 42.6181 36.8847 42.707 36.8069 42.7965C36.7681 42.8412 36.7297 42.8865 36.6914 42.9318C36.6147 43.0223 36.539 43.1139 36.4645 43.2066C36.3899 43.2992 36.3164 43.3924 36.2445 43.4867C36.1721 43.581 36.1007 43.6763 36.0309 43.7722C35.9958 43.8201 35.9606 43.8686 35.9265 43.917C35.8573 44.014 35.7896 44.1114 35.7231 44.2105C35.6895 44.2595 35.6565 44.309 35.624 44.3585C35.5585 44.4581 35.494 44.5588 35.4312 44.6594C35.3683 44.7606 35.306 44.8629 35.2453 44.9657C35.2128 45.0205 35.1809 45.0754 35.1494 45.1302C35.143 45.1414 35.1372 45.1521 35.1313 45.1627C35.1058 45.2069 35.0807 45.2511 35.0562 45.2959C35.0552 45.2975 35.0541 45.2991 35.0536 45.3007C35.0525 45.3017 35.052 45.3028 35.0514 45.3038C35.0493 45.3076 35.0472 45.3113 35.045 45.315C35.0349 45.3337 35.0248 45.3518 35.0147 45.3704C35.0024 45.3928 34.9902 45.4157 34.9774 45.4386C34.9721 45.4482 34.9667 45.4578 34.9619 45.4673C34.946 45.4961 34.9305 45.5249 34.9151 45.5542C34.9135 45.5574 34.9113 45.5605 34.9103 45.5637C34.9087 45.5664 34.9071 45.5696 34.9055 45.5728C34.9023 45.5792 34.8991 45.585 34.8959 45.5914C34.8943 45.5936 34.8932 45.5957 34.8922 45.5978C34.8916 45.5989 34.8911 45.6 34.8906 45.6016C34.8863 45.6085 34.8826 45.6159 34.8789 45.6234C34.8783 45.6245 34.8778 45.6255 34.8773 45.6266C34.8757 45.6292 34.8746 45.6314 34.8735 45.634C34.8634 45.6532 34.8538 45.6719 34.8437 45.6905C34.841 45.6964 34.8378 45.7027 34.8346 45.7086C34.8309 45.7161 34.8267 45.7235 34.8229 45.7304C34.8197 45.7374 34.816 45.7438 34.8128 45.7507C34.8112 45.7539 34.8096 45.7571 34.8075 45.7608C34.8064 45.7635 34.8048 45.7656 34.8038 45.7683C34.7979 45.7789 34.7926 45.7901 34.7872 45.8007C34.7745 45.8263 34.7611 45.8519 34.7484 45.878C34.7324 45.9094 34.7169 45.9403 34.702 45.9717C34.6962 45.9834 34.6908 45.9946 34.685 46.0063C34.6828 46.01 34.6813 46.0138 34.6802 46.017C34.6733 46.0297 34.6669 46.0431 34.661 46.0564C34.6509 46.0766 34.6413 46.0974 34.6312 46.1182C34.6264 46.1272 34.6221 46.1363 34.6184 46.1448C34.6179 46.1448 34.6179 46.1453 34.6179 46.1458V46.1469C34.6056 46.1719 34.5939 46.197 34.5822 46.2225C34.5699 46.2476 34.5582 46.2726 34.547 46.2982C34.5465 46.2987 34.546 46.2992 34.546 46.2998C34.5454 46.3003 34.5454 46.3014 34.5449 46.3019C34.5422 46.3067 34.5401 46.312 34.538 46.3173C34.5327 46.3285 34.5273 46.3402 34.522 46.3514C34.5167 46.3626 34.5113 46.3738 34.5066 46.385C34.505 46.3898 34.5028 46.394 34.5007 46.3988C34.4922 46.4169 34.4842 46.4345 34.4767 46.4526C34.4751 46.4558 34.4735 46.459 34.4719 46.4622C34.4703 46.4654 34.4693 46.4686 34.4677 46.4718V46.4723C34.4645 46.4787 34.4618 46.4851 34.4592 46.4915C34.4544 46.5021 34.4496 46.5133 34.4448 46.5245C34.4432 46.5266 34.4421 46.5293 34.441 46.532C34.44 46.5341 34.4389 46.5368 34.4378 46.5394C34.4341 46.5474 34.4309 46.5554 34.4272 46.5639C34.4117 46.5985 34.3968 46.6326 34.3825 46.6672C34.3734 46.6875 34.3649 46.7077 34.3564 46.7279C34.3564 46.7285 34.3558 46.729 34.3558 46.7295C34.3521 46.7381 34.3484 46.7471 34.3446 46.7556C34.3249 46.802 34.3058 46.8483 34.2871 46.8941C34.2871 46.8952 34.2866 46.8957 34.2866 46.8962C34.2829 46.9053 34.2791 46.9143 34.2754 46.9234C34.2674 46.9436 34.2594 46.9633 34.2514 46.9836C34.2402 47.0102 34.2296 47.0374 34.2189 47.0645C34.2078 47.0928 34.1971 47.1205 34.1859 47.1487C34.1753 47.1769 34.1641 47.2051 34.1534 47.2334C34.1321 47.2898 34.1108 47.3463 34.09 47.4033C34.0485 47.5167 34.008 47.6312 33.9691 47.7457C33.9303 47.8607 33.893 47.9763 33.8568 48.0924C33.8387 48.1505 33.8205 48.2085 33.8035 48.2671C33.7881 48.3187 33.7731 48.3709 33.7582 48.4231C33.7561 48.4295 33.7545 48.4359 33.7529 48.4423C33.7401 48.4876 33.7273 48.5323 33.7151 48.5776C33.7098 48.5957 33.705 48.6138 33.7002 48.6324C33.6879 48.6772 33.6762 48.7219 33.6645 48.7672C33.6458 48.8385 33.6277 48.9104 33.6102 48.9823C33.5963 49.0393 33.583 49.0963 33.5697 49.1533C33.5558 49.2135 33.542 49.2731 33.5292 49.3333C33.5031 49.4537 33.4786 49.574 33.4552 49.6954C33.4434 49.7562 33.4323 49.8169 33.4216 49.8776C33.4195 49.8893 33.4173 49.901 33.4152 49.9133C33.4136 49.9234 33.4115 49.9335 33.4099 49.9442C33.4078 49.9569 33.4056 49.9697 33.4035 49.9825C33.4014 49.9953 33.3992 50.0081 33.3971 50.0214C33.3944 50.0352 33.3918 50.0496 33.3897 50.0645C33.3886 50.0693 33.3881 50.0741 33.387 50.0794C33.3865 50.0837 33.3854 50.0879 33.3849 50.0927C33.3843 50.0943 33.3843 50.0959 33.3843 50.0981C33.3838 50.0991 33.3833 50.1007 33.3833 50.1023V50.1029C33.3822 50.1103 33.3806 50.1178 33.3795 50.1252C33.3763 50.1455 33.3731 50.1662 33.3699 50.1875C33.3689 50.1945 33.3673 50.2019 33.3667 50.2088C33.3652 50.2168 33.3641 50.2243 33.363 50.2323C33.3582 50.261 33.354 50.2893 33.3497 50.3185V50.3191C33.3454 50.3478 33.3412 50.3766 33.3369 50.4059C33.3343 50.424 33.3321 50.4416 33.3295 50.4597C33.3215 50.5161 33.314 50.5726 33.3071 50.6296L33.2975 50.7095C33.2938 50.7393 33.29 50.7696 33.2869 50.8C33.2826 50.8378 33.2783 50.8762 33.2741 50.9145C33.273 50.923 33.2725 50.9315 33.2714 50.9401C33.2698 50.9555 33.2682 50.9709 33.2666 50.9869C33.2661 50.9933 33.2656 50.9997 33.2645 51.0061C33.3795 49.5218 33.6224 48.0732 33.983 46.672C34.0347 46.4707 34.089 46.2699 34.146 46.0708C34.3159 45.4727 34.5071 44.8837 34.7191 44.3048C34.7899 44.1114 34.8629 43.9197 34.938 43.7285C35.126 43.2519 35.3284 42.7821 35.5441 42.3199C35.6304 42.1345 35.7193 41.9513 35.8099 41.7687C35.8551 41.6776 35.901 41.5865 35.9473 41.496C36.0405 41.3149 36.1353 41.1349 36.2322 40.9565C36.3776 40.6886 36.5278 40.4234 36.6828 40.1614C36.7862 39.9872 36.8916 39.8136 36.9987 39.6421C37.0519 39.5558 37.1063 39.4706 37.1611 39.3854C37.2703 39.2144 37.3816 39.0456 37.4951 38.8779C37.5659 38.7729 37.6373 38.6691 37.7097 38.5652C37.8908 38.3059 38.0762 38.0508 38.2663 37.7989C38.3041 37.7483 38.3425 37.6982 38.3808 37.6481C38.6264 37.3275 38.8799 37.0133 39.1403 36.705C39.5963 36.166 40.0746 35.6457 40.5736 35.1472C45.1355 30.5852 51.438 27.7642 58.3994 27.7642H58.3999C72.3226 27.7642 83.6099 39.0499 83.6099 52.9718Z" fill="white"/>
</mask>
<g mask="url(#mask3_4_90)">
<path d="M33.2645 27.7642V94.7472H83.6099V27.7642H33.2645Z" fill="url(#paint1_linear_4_90)"/>
</g>
</g>
<mask id="mask4_4_90" style="mask-type:luminance" maskUnits="userSpaceOnUse" x="33" y="37" width="30" height="40">
<path d="M33.1776 37.6832H62.8736V76.3136H33.1776V37.6832Z" fill="white"/>
</mask>
<g mask="url(#mask4_4_90)">
<mask id="mask5_4_90" style="mask-type:luminance" maskUnits="userSpaceOnUse" x="33" y="37" width="30" height="40">
<path d="M62.8564 52.5032V76.291C62.8564 69.653 57.5436 64.2559 50.9375 64.1191C54.4171 62.925 56.9183 59.6247 56.9183 55.7406C56.9183 50.849 52.9524 46.8835 48.0602 46.8835C43.1687 46.8835 39.2028 50.849 39.2028 55.7406C39.2028 59.6231 41.7018 62.9229 45.1793 64.118C38.5407 64.2171 33.1895 69.629 33.1895 76.291V52.5255C33.1895 44.3292 39.8345 37.6849 48.0315 37.6849C52.13 37.6849 55.8408 39.346 58.5262 42.0317C58.6509 42.1564 58.7728 42.2831 58.8937 42.412C58.9353 42.4567 58.9768 42.502 59.0178 42.5473C59.1324 42.6735 59.2453 42.8013 59.355 42.9318C59.4913 43.0931 59.6245 43.2577 59.7545 43.4249C59.7949 43.4766 59.8349 43.5288 59.8743 43.5815C59.8913 43.6044 59.9084 43.6273 59.9254 43.6502C59.9643 43.7019 60.0021 43.7535 60.04 43.8057C60.0714 43.8489 60.1023 43.892 60.1326 43.9351C60.1635 43.9783 60.1939 44.0214 60.2237 44.0651C60.236 44.0821 60.2477 44.0997 60.2594 44.1167C60.285 44.1535 60.31 44.1908 60.335 44.2281C60.3579 44.2616 60.3803 44.2952 60.4021 44.3287C60.4314 44.3729 60.4607 44.4171 60.4895 44.4619C60.5182 44.5066 60.547 44.5508 60.5752 44.5961C60.6903 44.7777 60.8011 44.9625 60.9081 45.1499C60.9332 45.1936 60.9582 45.2373 60.9822 45.281C61.0083 45.3273 61.0338 45.3742 61.0594 45.421C61.085 45.4674 61.11 45.5148 61.135 45.5616C61.16 45.6085 61.1851 45.6559 61.2091 45.7033C61.2341 45.7507 61.2581 45.7981 61.282 45.846C61.306 45.8939 61.33 45.9419 61.3534 45.9898C61.4003 46.0851 61.4461 46.1815 61.4908 46.2785C61.5137 46.3275 61.5356 46.3759 61.5574 46.4249C61.6479 46.6246 61.7332 46.827 61.8146 47.0315C61.8525 47.1268 61.8892 47.2222 61.9249 47.318C61.9457 47.374 61.9664 47.4304 61.9867 47.4869C62.0069 47.5433 62.0266 47.5998 62.0463 47.6568C62.0469 47.6589 62.0479 47.6605 62.0485 47.6626C62.0618 47.7004 62.0746 47.7377 62.0868 47.7755C62.1028 47.8218 62.1182 47.8687 62.1331 47.9156C62.1443 47.9491 62.155 47.9827 62.1651 48.0162C62.1731 48.0386 62.18 48.0615 62.1869 48.0844C62.2035 48.1361 62.2189 48.1877 62.2343 48.2399C62.2503 48.2916 62.2652 48.3438 62.2801 48.396C62.2956 48.4482 62.31 48.5003 62.3244 48.5525C62.3387 48.6047 62.3531 48.6575 62.367 48.7102C62.376 48.7437 62.3845 48.7778 62.3931 48.8114C62.4011 48.8417 62.4085 48.8716 62.416 48.9019C62.417 48.9056 62.4181 48.9099 62.4192 48.9136C62.4287 48.9514 62.4378 48.9898 62.4469 49.0276C62.4596 49.0809 62.4719 49.1336 62.4841 49.1868C62.4964 49.2401 62.5081 49.2939 62.5198 49.3471C62.531 49.3983 62.5417 49.4499 62.5523 49.5011C62.5534 49.5058 62.5544 49.5106 62.5555 49.516C62.5662 49.5671 62.5763 49.6182 62.5859 49.6699C62.5923 49.7002 62.5981 49.7311 62.6034 49.762C62.6109 49.7998 62.6178 49.8376 62.6242 49.876C62.6258 49.8824 62.6269 49.8888 62.628 49.8952C62.6338 49.9282 62.6397 49.9612 62.645 49.9947C62.6535 50.0427 62.6615 50.0911 62.669 50.1396C62.6722 50.1577 62.6748 50.1764 62.6775 50.1945C62.6844 50.2371 62.6908 50.2797 62.6972 50.3223C62.7009 50.3468 62.7041 50.3707 62.7078 50.3952C62.7094 50.4054 62.7105 50.4155 62.7121 50.4256C62.7132 50.432 62.7137 50.4384 62.7148 50.4453C62.719 50.4789 62.7238 50.5124 62.7281 50.5465C62.7345 50.5939 62.7409 50.6418 62.7462 50.6898C62.7499 50.7143 62.7526 50.7382 62.7552 50.7627C62.7558 50.7686 62.7568 50.7739 62.7574 50.7798C62.7616 50.8186 62.7659 50.858 62.7702 50.8969C62.7755 50.9417 62.7797 50.9859 62.784 51.0306C62.7936 51.1259 62.8021 51.2213 62.8096 51.3177C62.8122 51.3459 62.8144 51.3746 62.816 51.4034C62.8192 51.4439 62.8218 51.4844 62.8245 51.5254C62.8271 51.568 62.8298 51.6111 62.8325 51.6542V51.6564C62.833 51.6612 62.833 51.6665 62.8335 51.6713C62.8362 51.7219 62.8389 51.7719 62.841 51.8231C62.8431 51.8737 62.8453 51.9243 62.8474 51.9754C62.8479 51.9983 62.849 52.0206 62.8495 52.0435C62.8506 52.0862 62.8516 52.1293 62.8527 52.173C62.8554 52.2827 62.8564 52.3929 62.8564 52.5032Z" fill="white"/>
</mask>
<g mask="url(#mask5_4_90)">
<path d="M33.1895 37.6849V76.291H62.8564V37.6849H33.1895Z" fill="url(#paint2_linear_4_90)"/>
</g>
</g>
<defs>
<linearGradient id="paint0_linear_4_90" x1="23.7067" y1="94.9281" x2="21.9183" y2="0.893469" gradientUnits="userSpaceOnUse">
<stop stop-color="#00C0AF"/>
<stop offset="0.00419582" stop-color="#00C0AF"/>
<stop offset="0.25" stop-color="#00C0AF"/>
<stop offset="0.28125" stop-color="#00C0AF"/>
<stop offset="0.285156" stop-color="#00C0AE"/>
<stop offset="0.289062" stop-color="#00C1AD"/>
<stop offset="0.292969" stop-color="#00C1AC"/>
<stop offset="0.296875" stop-color="#00C1AB"/>
<stop offset="0.300781" stop-color="#01C2AA"/>
<stop offset="0.304688" stop-color="#01C2A9"/>
<stop offset="0.308594" stop-color="#01C2A8"/>
<stop offset="0.3125" stop-color="#01C3A7"/>
<stop offset="0.316406" stop-color="#01C3A6"/>
<stop offset="0.320312" stop-color="#01C3A5"/>
<stop offset="0.324219" stop-color="#01C4A4"/>
<stop offset="0.328125" stop-color="#01C4A3"/>
<stop offset="0.332031" stop-color="#01C4A2"/>
<stop offset="0.335938" stop-color="#02C5A2"/>
<stop offset="0.339844" stop-color="#02C5A1"/>
<stop offset="0.34375" stop-color="#02C6A0"/>
<stop offset="0.347656" stop-color="#02C69F"/>
<stop offset="0.351562" stop-color="#02C69E"/>
<stop offset="0.355469" stop-color="#02C79D"/>
<stop offset="0.359375" stop-color="#02C79C"/>
<stop offset="0.363281" stop-color="#02C79B"/>
<stop offset="0.367187" stop-color="#02C89A"/>
<stop offset="0.371094" stop-color="#03C899"/>
<stop offset="0.375" stop-color="#03C898"/>
<stop offset="0.378906" stop-color="#03C997"/>
<stop offset="0.382812" stop-color="#03C996"/>
<stop offset="0.386719" stop-color="#03C995"/>
<stop offset="0.390625" stop-color="#03CA94"/>
<stop offset="0.394531" stop-color="#03CA93"/>
<stop offset="0.398437" stop-color="#03CA92"/>
<stop offset="0.402344" stop-color="#03CB91"/>
<stop offset="0.40625" stop-color="#03CB90"/>
<stop offset="0.410156" stop-color="#04CB8F"/>
<stop offset="0.414062" stop-color="#04CC8E"/>
<stop offset="0.417969" stop-color="#04CC8D"/>
<stop offset="0.421875" stop-color="#04CC8C"/>
<stop offset="0.425781" stop-color="#04CD8B"/>
<stop offset="0.429687" stop-color="#04CD8A"/>
<stop offset="0.433594" stop-color="#04CE89"/>
<stop offset="0.4375" stop-color="#04CE88"/>
<stop offset="0.441406" stop-color="#04CE88"/>
<stop offset="0.445312" stop-color="#05CF87"/>
<stop offset="0.449219" stop-color="#05CF86"/>
<stop offset="0.453125" stop-color="#05CF85"/>
<stop offset="0.457031" stop-color="#05D084"/>
<stop offset="0.460938" stop-color="#05D083"/>
<stop offset="0.464844" stop-color="#05D082"/>
<stop offset="0.46875" stop-color="#05D181"/>
<stop offset="0.472656" stop-color="#05D180"/>
<stop offset="0.476562" stop-color="#05D17F"/>
<stop offset="0.480469" stop-color="#06D27E"/>
<stop offset="0.484375" stop-color="#06D27D"/>
<stop offset="0.488281" stop-color="#06D27C"/>
<stop offset="0.492187" stop-color="#06D37B"/>
<stop offset="0.496094" stop-color="#06D37A"/>
<stop offset="0.5" stop-color="#06D379"/>
<stop offset="0.503906" stop-color="#06D478"/>
<stop offset="0.507812" stop-color="#06D477"/>
<stop offset="0.511719" stop-color="#06D476"/>
<stop offset="0.515625" stop-color="#07D575"/>
<stop offset="0.519531" stop-color="#07D574"/>
<stop offset="0.523438" stop-color="#07D573"/>
<stop offset="0.527344" stop-color="#07D672"/>
<stop offset="0.53125" stop-color="#07D671"/>
<stop offset="0.535156" stop-color="#07D770"/>
<stop offset="0.539062" stop-color="#07D76F"/>
<stop offset="0.542969" stop-color="#07D76F"/>
<stop offset="0.546875" stop-color="#07D86E"/>
<stop offset="0.550781" stop-color="#08D86D"/>
<stop offset="0.554688" stop-color="#08D86C"/>
<stop offset="0.558594" stop-color="#08D96B"/>
<stop offset="0.5625" stop-color="#08D96A"/>
<stop offset="0.566406" stop-color="#08D969"/>
<stop offset="0.570312" stop-color="#08DA68"/>
<stop offset="0.574219" stop-color="#08DA67"/>
<stop offset="0.578125" stop-color="#08DA66"/>
<stop offset="0.582031" stop-color="#08DB65"/>
<stop offset="0.585938" stop-color="#09DB64"/>
<stop offset="0.589844" stop-color="#09DB63"/>
<stop offset="0.59375" stop-color="#09DC62"/>
<stop offset="0.597656" stop-color="#09DC61"/>
<stop offset="0.601562" stop-color="#09DC60"/>
<stop offset="0.605469" stop-color="#09DD5F"/>
<stop offset="0.609375" stop-color="#09DD5E"/>
<stop offset="0.613281" stop-color="#09DD5D"/>
<stop offset="0.617188" stop-color="#09DE5C"/>
<stop offset="0.621094" stop-color="#0ADE5B"/>
<stop offset="0.625" stop-color="#0ADE5A"/>
<stop offset="0.628906" stop-color="#0ADF59"/>
<stop offset="0.632812" stop-color="#0ADF58"/>
<stop offset="0.636719" stop-color="#0AE057"/>
<stop offset="0.640625" stop-color="#0AE056"/>
<stop offset="0.644531" stop-color="#0AE056"/>
<stop offset="0.648437" stop-color="#0AE155"/>
<stop offset="0.652344" stop-color="#0AE154"/>
<stop offset="0.65625" stop-color="#0AE153"/>
<stop offset="0.660156" stop-color="#0BE252"/>
<stop offset="0.664062" stop-color="#0BE251"/>
<stop offset="0.667969" stop-color="#0BE250"/>
<stop offset="0.671875" stop-color="#0BE34F"/>
<stop offset="0.675781" stop-color="#0BE34E"/>
<stop offset="0.679687" stop-color="#0BE34D"/>
<stop offset="0.683594" stop-color="#0BE44C"/>
<stop offset="0.6875" stop-color="#0BE44B"/>
<stop offset="0.691406" stop-color="#0BE44A"/>
<stop offset="0.695312" stop-color="#0CE549"/>
<stop offset="0.699219" stop-color="#0CE548"/>
<stop offset="0.703125" stop-color="#0CE547"/>
<stop offset="0.707031" stop-color="#0CE646"/>
<stop offset="0.710937" stop-color="#0CE645"/>
<stop offset="0.714844" stop-color="#0CE644"/>
<stop offset="0.71875" stop-color="#0CE743"/>
<stop offset="0.722656" stop-color="#0CE742"/>
<stop offset="0.726562" stop-color="#0CE741"/>
<stop offset="0.730469" stop-color="#0DE840"/>
<stop offset="0.734375" stop-color="#0DE83F"/>
<stop offset="0.738281" stop-color="#0DE93E"/>
<stop offset="0.742188" stop-color="#0DE93D"/>
<stop offset="0.746094" stop-color="#0DE93D"/>
<stop offset="0.75" stop-color="#0DEA3C"/>
<stop offset="0.753906" stop-color="#0DEA3B"/>
<stop offset="0.757812" stop-color="#0DEA3A"/>
<stop offset="0.761719" stop-color="#0DEB39"/>
<stop offset="0.765625" stop-color="#0EEB38"/>
<stop offset="0.769531" stop-color="#0EEB37"/>
<stop offset="0.773438" stop-color="#0EEC36"/>
<stop offset="0.777344" stop-color="#0EEC35"/>
<stop offset="0.78125" stop-color="#0EEC34"/>
<stop offset="0.785156" stop-color="#0EED33"/>
<stop offset="0.789062" stop-color="#0EED32"/>
<stop offset="0.792969" stop-color="#0EED31"/>
<stop offset="0.796875" stop-color="#0EEE30"/>
<stop offset="0.800781" stop-color="#0FEE2F"/>
<stop offset="0.804687" stop-color="#0FEE2E"/>
<stop offset="0.808594" stop-color="#0FEF2D"/>
<stop offset="0.8125" stop-color="#0FEF2C"/>
<stop offset="0.816406" stop-color="#0FEF2B"/>
<stop offset="0.820312" stop-color="#0FF02A"/>
<stop offset="0.824219" stop-color="#0FF029"/>
<stop offset="0.828125" stop-color="#0FF028"/>
<stop offset="0.832031" stop-color="#0FF127"/>
<stop offset="0.835938" stop-color="#10F126"/>
<stop offset="0.839844" stop-color="#10F225"/>
<stop offset="0.84375" stop-color="#10F224"/>
<stop offset="0.847656" stop-color="#10F224"/>
<stop offset="0.851562" stop-color="#10F323"/>
<stop offset="0.855469" stop-color="#10F322"/>
<stop offset="0.859375" stop-color="#10F321"/>
<stop offset="0.863281" stop-color="#10F420"/>
<stop offset="0.867187" stop-color="#10F41F"/>
<stop offset="0.871094" stop-color="#11F41E"/>
<stop offset="0.875" stop-color="#11F51D"/>
<stop offset="0.878906" stop-color="#11F51C"/>
<stop offset="0.882812" stop-color="#11F51B"/>
<stop offset="0.886719" stop-color="#11F61A"/>
<stop offset="0.890625" stop-color="#11F619"/>
<stop offset="0.894531" stop-color="#11F618"/>
<stop offset="0.898438" stop-color="#11F717"/>
<stop offset="0.902344" stop-color="#11F716"/>
<stop offset="0.90625" stop-color="#11F715"/>
<stop offset="0.910156" stop-color="#12F814"/>
<stop offset="0.914062" stop-color="#12F813"/>
<stop offset="0.917969" stop-color="#12F812"/>
<stop offset="0.921875" stop-color="#12F911"/>
<stop offset="0.925781" stop-color="#12F910"/>
<stop offset="0.929687" stop-color="#12F90F"/>
<stop offset="0.933594" stop-color="#12FA0E"/>
<stop offset="0.9375" stop-color="#12FA0D"/>
<stop offset="0.941406" stop-color="#12FB0C"/>
<stop offset="0.945312" stop-color="#13FB0B"/>
<stop offset="0.949219" stop-color="#13FB0B"/>
<stop offset="0.953125" stop-color="#13FC0A"/>
<stop offset="0.957031" stop-color="#13FC09"/>
<stop offset="0.960938" stop-color="#13FC08"/>
<stop offset="0.964844" stop-color="#13FD07"/>
<stop offset="0.96875" stop-color="#13FD06"/>
<stop offset="0.972656" stop-color="#13FD05"/>
<stop offset="0.976562" stop-color="#13FE04"/>
<stop offset="0.980469" stop-color="#14FE03"/>
<stop offset="0.984375" stop-color="#14FE02"/>
<stop offset="0.988281" stop-color="#14FF01"/>
<stop offset="0.992187" stop-color="#14FF00"/>
<stop offset="0.995804" stop-color="#14FF00"/>
<stop offset="1" stop-color="#14FF00"/>
</linearGradient>
<linearGradient id="paint1_linear_4_90" x1="58.3474" y1="94.8495" x2="58.6213" y2="27.6623" gradientUnits="userSpaceOnUse">
<stop stop-color="#00C0AF"/>
<stop offset="0.00305492" stop-color="#00C0AF"/>
<stop offset="0.0625" stop-color="#00C0AF"/>
<stop offset="0.09375" stop-color="#00C0AF"/>
<stop offset="0.109375" stop-color="#00C0AF"/>
<stop offset="0.113281" stop-color="#00C0AE"/>
<stop offset="0.117188" stop-color="#00C1AD"/>
<stop offset="0.121094" stop-color="#00C1AC"/>
<stop offset="0.125" stop-color="#00C1AB"/>
<stop offset="0.128906" stop-color="#01C2AA"/>
<stop offset="0.132812" stop-color="#01C2A9"/>
<stop offset="0.136719" stop-color="#01C2A8"/>
<stop offset="0.140625" stop-color="#01C3A7"/>
<stop offset="0.144531" stop-color="#01C3A6"/>
<stop offset="0.148438" stop-color="#01C3A6"/>
<stop offset="0.152344" stop-color="#01C4A5"/>
<stop offset="0.15625" stop-color="#01C4A4"/>
<stop offset="0.160156" stop-color="#01C4A3"/>
<stop offset="0.164062" stop-color="#01C5A2"/>
<stop offset="0.167969" stop-color="#02C5A1"/>
<stop offset="0.171875" stop-color="#02C5A0"/>
<stop offset="0.175781" stop-color="#02C69F"/>
<stop offset="0.179687" stop-color="#02C69E"/>
<stop offset="0.183594" stop-color="#02C69D"/>
<stop offset="0.1875" stop-color="#02C79C"/>
<stop offset="0.191406" stop-color="#02C79B"/>
<stop offset="0.195312" stop-color="#02C79B"/>
<stop offset="0.199219" stop-color="#02C89A"/>
<stop offset="0.203125" stop-color="#03C899"/>
<stop offset="0.207031" stop-color="#03C898"/>
<stop offset="0.210937" stop-color="#03C997"/>
<stop offset="0.214844" stop-color="#03C996"/>
<stop offset="0.21875" stop-color="#03C995"/>
<stop offset="0.222656" stop-color="#03CA94"/>
<stop offset="0.226562" stop-color="#03CA93"/>
<stop offset="0.230469" stop-color="#03CA92"/>
<stop offset="0.234375" stop-color="#03CB91"/>
<stop offset="0.238281" stop-color="#03CB91"/>
<stop offset="0.242187" stop-color="#04CB90"/>
<stop offset="0.246094" stop-color="#04CC8F"/>
<stop offset="0.25" stop-color="#04CC8E"/>
<stop offset="0.253906" stop-color="#04CC8D"/>
<stop offset="0.257812" stop-color="#04CD8C"/>
<stop offset="0.261719" stop-color="#04CD8B"/>
<stop offset="0.265625" stop-color="#04CD8A"/>
<stop offset="0.269531" stop-color="#04CE89"/>
<stop offset="0.273438" stop-color="#04CE88"/>
<stop offset="0.277344" stop-color="#04CE87"/>
<stop offset="0.28125" stop-color="#05CF87"/>
<stop offset="0.285156" stop-color="#05CF86"/>
<stop offset="0.289062" stop-color="#05CF85"/>
<stop offset="0.292969" stop-color="#05D084"/>
<stop offset="0.296875" stop-color="#05D083"/>
<stop offset="0.300781" stop-color="#05D082"/>
<stop offset="0.304687" stop-color="#05D181"/>
<stop offset="0.308594" stop-color="#05D180"/>
<stop offset="0.3125" stop-color="#05D17F"/>
<stop offset="0.316406" stop-color="#06D27E"/>
<stop offset="0.320312" stop-color="#06D27D"/>
<stop offset="0.324219" stop-color="#06D27C"/>
<stop offset="0.328125" stop-color="#06D37C"/>
<stop offset="0.332031" stop-color="#06D37B"/>
<stop offset="0.335937" stop-color="#06D37A"/>
<stop offset="0.339844" stop-color="#06D379"/>
<stop offset="0.34375" stop-color="#06D478"/>
<stop offset="0.347656" stop-color="#06D477"/>
<stop offset="0.351562" stop-color="#06D476"/>
<stop offset="0.355469" stop-color="#07D575"/>
<stop offset="0.359375" stop-color="#07D574"/>
<stop offset="0.363281" stop-color="#07D573"/>
<stop offset="0.367188" stop-color="#07D672"/>
<stop offset="0.371094" stop-color="#07D672"/>
<stop offset="0.375" stop-color="#07D671"/>
<stop offset="0.378906" stop-color="#07D770"/>
<stop offset="0.382812" stop-color="#07D76F"/>
<stop offset="0.386719" stop-color="#07D76E"/>
<stop offset="0.390625" stop-color="#07D86D"/>
<stop offset="0.394531" stop-color="#08D86C"/>
<stop offset="0.398437" stop-color="#08D86B"/>
<stop offset="0.402344" stop-color="#08D96A"/>
<stop offset="0.40625" stop-color="#08D969"/>
<stop offset="0.410156" stop-color="#08D968"/>
<stop offset="0.414062" stop-color="#08DA68"/>
<stop offset="0.417969" stop-color="#08DA67"/>
<stop offset="0.421875" stop-color="#08DA66"/>
<stop offset="0.425781" stop-color="#08DB65"/>
<stop offset="0.429687" stop-color="#09DB64"/>
<stop offset="0.433594" stop-color="#09DB63"/>
<stop offset="0.4375" stop-color="#09DC62"/>
<stop offset="0.441406" stop-color="#09DC61"/>
<stop offset="0.445312" stop-color="#09DC60"/>
<stop offset="0.449219" stop-color="#09DD5F"/>
<stop offset="0.453125" stop-color="#09DD5E"/>
<stop offset="0.457031" stop-color="#09DD5D"/>
<stop offset="0.460937" stop-color="#09DE5D"/>
<stop offset="0.464844" stop-color="#09DE5C"/>
<stop offset="0.46875" stop-color="#0ADE5B"/>
<stop offset="0.472656" stop-color="#0ADF5A"/>
<stop offset="0.476562" stop-color="#0ADF59"/>
<stop offset="0.480469" stop-color="#0ADF58"/>
<stop offset="0.484375" stop-color="#0AE057"/>
<stop offset="0.488281" stop-color="#0AE056"/>
<stop offset="0.492187" stop-color="#0AE055"/>
<stop offset="0.496094" stop-color="#0AE154"/>
<stop offset="0.5" stop-color="#0AE153"/>
<stop offset="0.503906" stop-color="#0BE153"/>
<stop offset="0.507812" stop-color="#0BE252"/>
<stop offset="0.511719" stop-color="#0BE251"/>
<stop offset="0.515625" stop-color="#0BE250"/>
<stop offset="0.519531" stop-color="#0BE34F"/>
<stop offset="0.523438" stop-color="#0BE34E"/>
<stop offset="0.527344" stop-color="#0BE34D"/>
<stop offset="0.53125" stop-color="#0BE44C"/>
<stop offset="0.535156" stop-color="#0BE44B"/>
<stop offset="0.539062" stop-color="#0BE44A"/>
<stop offset="0.542969" stop-color="#0CE549"/>
<stop offset="0.546875" stop-color="#0CE548"/>
<stop offset="0.550781" stop-color="#0CE548"/>
<stop offset="0.554687" stop-color="#0CE647"/>
<stop offset="0.558594" stop-color="#0CE646"/>
<stop offset="0.5625" stop-color="#0CE645"/>
<stop offset="0.566406" stop-color="#0CE744"/>
<stop offset="0.570312" stop-color="#0CE743"/>
<stop offset="0.574219" stop-color="#0CE742"/>
<stop offset="0.578125" stop-color="#0CE841"/>
<stop offset="0.582031" stop-color="#0DE840"/>
<stop offset="0.585938" stop-color="#0DE83F"/>
<stop offset="0.589844" stop-color="#0DE93E"/>
<stop offset="0.59375" stop-color="#0DE93E"/>
<stop offset="0.597656" stop-color="#0DE93D"/>
<stop offset="0.601562" stop-color="#0DE93C"/>
<stop offset="0.605469" stop-color="#0DEA3B"/>
<stop offset="0.609375" stop-color="#0DEA3A"/>
<stop offset="0.613281" stop-color="#0DEA39"/>
<stop offset="0.617187" stop-color="#0EEB38"/>
<stop offset="0.621094" stop-color="#0EEB37"/>
<stop offset="0.625" stop-color="#0EEB36"/>
<stop offset="0.628906" stop-color="#0EEC35"/>
<stop offset="0.632812" stop-color="#0EEC34"/>
<stop offset="0.636719" stop-color="#0EEC34"/>
<stop offset="0.640625" stop-color="#0EED33"/>
<stop offset="0.644531" stop-color="#0EED32"/>
<stop offset="0.648438" stop-color="#0EED31"/>
<stop offset="0.652344" stop-color="#0EEE30"/>
<stop offset="0.65625" stop-color="#0FEE2F"/>
<stop offset="0.660156" stop-color="#0FEE2E"/>
<stop offset="0.664063" stop-color="#0FEF2D"/>
<stop offset="0.667969" stop-color="#0FEF2C"/>
<stop offset="0.671875" stop-color="#0FEF2B"/>
<stop offset="0.675781" stop-color="#0FF02A"/>
<stop offset="0.679688" stop-color="#0FF029"/>
<stop offset="0.683594" stop-color="#0FF029"/>
<stop offset="0.6875" stop-color="#0FF128"/>
<stop offset="0.691406" stop-color="#0FF127"/>
<stop offset="0.695312" stop-color="#10F126"/>
<stop offset="0.699219" stop-color="#10F225"/>
<stop offset="0.703125" stop-color="#10F224"/>
<stop offset="0.707031" stop-color="#10F223"/>
<stop offset="0.710938" stop-color="#10F322"/>
<stop offset="0.714844" stop-color="#10F321"/>
<stop offset="0.71875" stop-color="#10F320"/>
<stop offset="0.722656" stop-color="#10F41F"/>
<stop offset="0.726562" stop-color="#10F41F"/>
<stop offset="0.730469" stop-color="#11F41E"/>
<stop offset="0.734375" stop-color="#11F51D"/>
<stop offset="0.738281" stop-color="#11F51C"/>
<stop offset="0.742188" stop-color="#11F51B"/>
<stop offset="0.746094" stop-color="#11F61A"/>
<stop offset="0.75" stop-color="#11F619"/>
<stop offset="0.753906" stop-color="#11F618"/>
<stop offset="0.757812" stop-color="#11F717"/>
<stop offset="0.761719" stop-color="#11F716"/>
<stop offset="0.765625" stop-color="#11F715"/>
<stop offset="0.769531" stop-color="#12F815"/>
<stop offset="0.773437" stop-color="#12F814"/>
<stop offset="0.777344" stop-color="#12F813"/>
<stop offset="0.78125" stop-color="#12F912"/>
<stop offset="0.785156" stop-color="#12F911"/>
<stop offset="0.789062" stop-color="#12F910"/>
<stop offset="0.792969" stop-color="#12FA0F"/>
<stop offset="0.796875" stop-color="#12FA0E"/>
<stop offset="0.800781" stop-color="#12FA0D"/>
<stop offset="0.804688" stop-color="#12FB0C"/>
<stop offset="0.808594" stop-color="#13FB0B"/>
<stop offset="0.8125" stop-color="#13FB0A"/>
<stop offset="0.816406" stop-color="#13FC0A"/>
<stop offset="0.820312" stop-color="#13FC09"/>
<stop offset="0.824219" stop-color="#13FC08"/>
<stop offset="0.828125" stop-color="#13FD07"/>
<stop offset="0.832031" stop-color="#13FD06"/>
<stop offset="0.835937" stop-color="#13FD05"/>
<stop offset="0.839844" stop-color="#13FE04"/>
<stop offset="0.84375" stop-color="#14FE03"/>
<stop offset="0.847656" stop-color="#14FE02"/>
<stop offset="0.851562" stop-color="#14FF01"/>
<stop offset="0.855469" stop-color="#14FF01"/>
<stop offset="0.859375" stop-color="#14FF00"/>
<stop offset="0.875" stop-color="#14FF00"/>
<stop offset="0.996945" stop-color="#14FF00"/>
<stop offset="1" stop-color="#14FF00"/>
</linearGradient>
<linearGradient id="paint2_linear_4_90" x1="64.6091" y1="56.0808" x2="31.5639" y2="59.2293" gradientUnits="userSpaceOnUse">
<stop stop-color="#009986"/>
<stop offset="0.0625" stop-color="#009986"/>
<stop offset="0.0703125" stop-color="#009985"/>
<stop offset="0.078125" stop-color="#009884"/>
<stop offset="0.0859375" stop-color="#009883"/>
<stop offset="0.09375" stop-color="#009883"/>
<stop offset="0.101563" stop-color="#009782"/>
<stop offset="0.109375" stop-color="#009781"/>
<stop offset="0.110309" stop-color="#009780"/>
<stop offset="0.117188" stop-color="#00967F"/>
<stop offset="0.125" stop-color="#00967F"/>
<stop offset="0.132813" stop-color="#00967E"/>
<stop offset="0.140625" stop-color="#00957D"/>
<stop offset="0.148438" stop-color="#00957C"/>
<stop offset="0.15625" stop-color="#00957C"/>
<stop offset="0.164062" stop-color="#00947B"/>
<stop offset="0.171875" stop-color="#00947A"/>
<stop offset="0.179688" stop-color="#009479"/>
<stop offset="0.1875" stop-color="#009378"/>
<stop offset="0.195313" stop-color="#009377"/>
<stop offset="0.203125" stop-color="#009376"/>
<stop offset="0.210938" stop-color="#009276"/>
<stop offset="0.21875" stop-color="#009275"/>
<stop offset="0.226562" stop-color="#009174"/>
<stop offset="0.234375" stop-color="#009173"/>
<stop offset="0.242188" stop-color="#009172"/>
<stop offset="0.25" stop-color="#009071"/>
<stop offset="0.257812" stop-color="#009070"/>
<stop offset="0.265625" stop-color="#009070"/>
<stop offset="0.273438" stop-color="#008F6F"/>
<stop offset="0.28125" stop-color="#008F6E"/>
<stop offset="0.289062" stop-color="#008F6D"/>
<stop offset="0.296875" stop-color="#008E6C"/>
<stop offset="0.304688" stop-color="#008E6B"/>
<stop offset="0.3125" stop-color="#008D6A"/>
<stop offset="0.320313" stop-color="#008D6A"/>
<stop offset="0.328125" stop-color="#008D69"/>
<stop offset="0.335938" stop-color="#008C68"/>
<stop offset="0.34375" stop-color="#008C67"/>
<stop offset="0.351563" stop-color="#008C66"/>
<stop offset="0.359375" stop-color="#008B65"/>
<stop offset="0.367188" stop-color="#008B64"/>
<stop offset="0.375" stop-color="#008B64"/>
<stop offset="0.382812" stop-color="#008A63"/>
<stop offset="0.390625" stop-color="#008A62"/>
<stop offset="0.398438" stop-color="#008A61"/>
<stop offset="0.40625" stop-color="#008960"/>
<stop offset="0.414063" stop-color="#00895F"/>
<stop offset="0.421875" stop-color="#00885E"/>
<stop offset="0.429688" stop-color="#00885E"/>
<stop offset="0.4375" stop-color="#00885D"/>
<stop offset="0.445313" stop-color="#00875C"/>
<stop offset="0.453125" stop-color="#00875B"/>
<stop offset="0.460938" stop-color="#00875A"/>
<stop offset="0.46875" stop-color="#008659"/>
<stop offset="0.476563" stop-color="#008658"/>
<stop offset="0.484375" stop-color="#008657"/>
<stop offset="0.492188" stop-color="#008557"/>
<stop offset="0.5" stop-color="#008556"/>
<stop offset="0.507812" stop-color="#008455"/>
<stop offset="0.515625" stop-color="#008454"/>
<stop offset="0.523438" stop-color="#008453"/>
<stop offset="0.53125" stop-color="#008352"/>
<stop offset="0.539062" stop-color="#008351"/>
<stop offset="0.546875" stop-color="#008351"/>
<stop offset="0.554688" stop-color="#008250"/>
<stop offset="0.5625" stop-color="#00824F"/>
<stop offset="0.570313" stop-color="#00824E"/>
<stop offset="0.578125" stop-color="#00814D"/>
<stop offset="0.585938" stop-color="#00814C"/>
<stop offset="0.59375" stop-color="#00804B"/>
<stop offset="0.601563" stop-color="#00804B"/>
<stop offset="0.609375" stop-color="#00804A"/>
<stop offset="0.617188" stop-color="#007F49"/>
<stop offset="0.625" stop-color="#007F48"/>
<stop offset="0.632812" stop-color="#007F47"/>
<stop offset="0.640625" stop-color="#007E46"/>
<stop offset="0.648438" stop-color="#007E45"/>
<stop offset="0.65625" stop-color="#007E45"/>
<stop offset="0.664063" stop-color="#007D44"/>
<stop offset="0.671875" stop-color="#007D43"/>
<stop offset="0.679688" stop-color="#007D42"/>
<stop offset="0.6875" stop-color="#007C41"/>
<stop offset="0.695313" stop-color="#007C40"/>
<stop offset="0.703125" stop-color="#007B3F"/>
<stop offset="0.710938" stop-color="#007B3F"/>
<stop offset="0.71875" stop-color="#007B3E"/>
<stop offset="0.726562" stop-color="#007A3D"/>
<stop offset="0.734375" stop-color="#007A3C"/>
<stop offset="0.742188" stop-color="#007A3B"/>
<stop offset="0.75" stop-color="#00793A"/>
<stop offset="0.889691" stop-color="#00793A"/>
<stop offset="1" stop-color="#00793A"/>
</linearGradient>
</defs>
</svg>
