<?xml version="1.0" encoding="utf-8"?>
<!-- Generator: Adobe Illustrator 26.3.0, SVG Export Plug-In . SVG Version: 6.00 Build 0)  -->
<svg version="1.1" id="Layer_1" xmlns="http://www.w3.org/2000/svg" xmlns:xlink="http://www.w3.org/1999/xlink" x="0px" y="0px"
	 viewBox="0 0 733 1080" style="enable-background:new 0 0 733 1080;" xml:space="preserve">
<style type="text/css">
	.st0{fill:#1414D2;}
	.st1{fill:url(#SVGID_1_);}
</style>
<g>
	<path class="st0" d="M733,716.1v178.7c0,3.5-2.8,6.3-6.3,6.3H610.2c-3.5,0-6.3-2.8-6.3-6.3V663.3c0-4.6,4.7-7.6,8.9-5.7l116.5,52.8
		C731.5,711.4,733,713.7,733,716.1z"/>
	<linearGradient id="SVGID_1_" gradientUnits="userSpaceOnUse" x1="-359.4041" y1="543.7695" x2="691.9761" y2="539.3098">
		<stop  offset="9.560564e-02" style="stop-color:#FF0000"/>
		<stop  offset="1" style="stop-color:#1414D2"/>
	</linearGradient>
	<path class="st1" d="M733,1047.7v13.5c0,10.4-8.4,18.8-18.8,18.8H18.8c-10.4,0-18.8-8.4-18.8-18.8V359.5c0-6.1,2.9-11.8,7.9-15.3
		l95.2-67.7l26.8-19.1c12.4-8.9,29.7,0,29.7,15.3v737.4c0,10.4,8.4,18.8,18.8,18.8h179.3c10.4,0,18.8-8.4,18.8-18.8V904.4
		c0-10.4-8.4-18.8-18.8-18.8h-45.5c-10.4,0-18.8-8.4-18.8-18.8V309.1c0-7.4-4.3-14.1-11-17.1l-83.1-37.7c-6.7-3-11-9.7-11-17.1
		V116.5c0-6.1,2.9-11.8,7.9-15.3L301,26.6l32.4-23.1l0,0c5.5-3.9,12.6-4.6,18.7-1.8l43,19.5l105.1,47.7l179.6,81.5
		c6.7,3,11,9.7,11,17.1v6.8c0,13.7-14.1,22.8-26.6,17.1L500.3,117L395.1,69.3L360,53.4c-12.4-5.6-26.6,3.5-26.6,17.1v745.2
		c0,10.4,8.4,18.8,18.8,18.8h5.4c10.4,0,18.8-8.4,18.8-18.8V625c0-6.1,2.9-11.8,7.9-15.3l16.2-11.5l91.8-65.3
		c5-3.5,7.9-9.2,7.9-15.3V385.8c0-13.7,14.1-22.8,26.6-17.1l86.5,39.3l66.5,30.2c6.7,3,11,9.7,11,17.1v97.1
		c0,13.7-14.1,22.8-26.6,17.1l-101.8-46.2c-12.4-5.6-26.6,3.5-26.6,17.1v469.7c0,10.4,8.4,18.8,18.8,18.8h159.4
		C724.5,1028.9,733,1037.3,733,1047.7z"/>
	<path class="st0" d="M690.9,272.4v82.7c0,4.6-4.7,7.6-8.9,5.7l-178-80.8c-2.2-1-3.7-3.3-3.7-5.7v-82.7c0-4.6,4.7-7.6,8.9-5.7
		l178,80.8C689.4,267.7,690.9,269.9,690.9,272.4z"/>
</g>
</svg>
